# AST/ASF file generated using VICON BodyLanguage
# -----------------------------------------------
:version 1.10
:name VICON
:units
  mass 1.0
  length 0.45
  angle deg
:documentation
   .ast/.asf automatically generated from VICON data using
   VICON BodyBuilder and BodyLanguage model FoxedUp or BRILLIANT.MOD
:root
   order TX TY TZ RX RY RZ
   axis XYZ
   position 0 0 0  
   orientation 0 0 0 
:bonedata
  begin
     id 1 
     name lhipjoint
     direction 0.64773 -0.699417 0.302095 
     length 2.48597 
     axis 0 0 0  XYZ
  end
  begin
     id 2 
     name lfemur
     direction 0.34202 -0.939693 0  
     length 6.71947  
     axis 0 0 20  XYZ
    dof rx ry rz
    limits (-160.0 20.0)
           (-70.0 70.0)
           (-60.0 70.0)
  end
  begin
     id 3 
     name ltibia
     direction 0.34202 -0.939693 0   
     length 8.08777   
     axis 0 0 20   XYZ
    dof rx
    limits (-10.0 170.0)
  end
  begin
     id 4 
     name lfoot
     direction 0.0808503 -0.222134 0.971658   
     length 2.08264   
     axis -90 7.62852e-016 20   XYZ
    dof rx rz
    limits (-45.0 90.0)
           (-70.0 20.0)
  end
  begin
     id 5 
     name ltoes
     direction 1.53502e-011 -4.22007e-011 1   
     length 1.04662   
     axis -90 7.62852e-016 20   XYZ
    dof rx
    limits (-90.0 20.0)
  end
  begin
     id 6 
     name rhipjoint
     direction -0.610924 -0.726792 0.313919   
     length 2.39233  
     axis 0 0 0  XYZ 
  end
  begin
     id 7 
     name rfemur
     direction -0.34202 -0.939693 0   
     length 6.96955   
     axis 0 0 -20   XYZ
    dof rx ry rz
    limits (-160.0 20.0)
           (-70.0 70.0)
           (-70.0 60.0)
  end
  begin
     id 8 
     name rtibia
     direction -0.34202 -0.939693 0   
     length 8.19584   
     axis 0 0 -20   XYZ
    dof rx
    limits (-10.0 170.0)
 end
 begin
     id 9 
     name rfoot
     direction -0.077777 -0.213691 0.9738   
     length 2.07539  
     axis -90 -7.62852e-016 -20   XYZ
    dof rx rz
    limits (-45.0 90.0)
           (-20.0 70.0)
  end
  begin
     id 10 
     name rtoes
     direction -1.53558e-011 -4.22006e-011 1   
     length 1.04381   
     axis -90 -7.62852e-016 -20   XYZ
    dof rx
    limits (-90.0 20.0)
  end
  begin
     id 11 
     name lowerback
     direction -0.00971646 0.996074 0.0879841   
     length 1.67643   
     axis 0 0 0   XYZ
    dof rx ry rz
    limits (-20.0 45.0)
           (-30.0 30.0)
           (-30.0 30.0)
  end
  begin
     id 12 
     name upperback
     direction 0.0127391 0.991676 0.128127   
     length 1.63741   
     axis 0 0 0   XYZ
    dof rx ry rz
    limits (-20.0 45.0)
           (-30.0 30.0)
           (-30.0 30.0)
  end
  begin
     id 13 
     name thorax
     direction 0.0167583 0.996049 0.0872067   
     length 1.65931   
     axis 0 0 0   XYZ
    dof rx ry rz
    limits (-20.0 45.0)
           (-30.0 30.0)
           (-30.0 30.0)
  end
  begin
     id 14 
     name lowerneck
     direction -0.0317829 0.998312 0.0486079   
     length 1.79021   
     axis 0 0 0   XYZ
    dof rx ry rz
    limits (-20.0 45.0)
           (-30.0 30.0)
           (-30.0 30.0)
  end
  begin
     id 15 
     name upperneck
     direction 0.0896851 0.972452 -0.215159   
     length 1.78797   
     axis 0 0 0   XYZ
    dof rx ry rz
    limits (-20.0 45.0)
           (-30.0 30.0)
           (-30.0 30.0)
  end
  begin
     id 16
     name head
     direction 0.0310949 0.996503 -0.0775582  
     length 1.81549  
     axis 0 0 0   XYZ
    dof rx ry rz
    limits (-20.0 45.0)
           (-30.0 30.0)
           (-30.0 30.0)
  end
  begin
     id 17 
     name lclavicle
     direction 0.853638 0.502051 -0.138733  
     length 3.31627  
     axis 0 0 0   XYZ
    dof ry rz
    limits (-20.0 10.0)
           (0.0 20.0)
  end
  begin
     id 18 
     name lhumerus
     direction 1 -4.48962e-011 -1.41788e-018   
     length 5.54893   
     axis 180 -30 -90   XYZ
    dof rx ry rz
    limits (-60.0 90.0)
           (-90.0 90.0)
           (-90.0 90.0)
  end
  begin
     id 19
     name lradius
     direction 1 -4.48962e-011 -4.95754e-027   
     length 3.02898   
     axis 180 -30 -90   XYZ
    dof rx
    limits (-10.0 170.0)
  end
  begin
     id 20
     name lwrist
     direction 1 -4.48952e-011 -1.03764e-026   
     length 1.51449   
     axis 9.09556e-015 90 90   XYZ
    dof ry
    limits (-180.0 0.0)
 end
  begin
     id 21 
     name lhand
     direction 1 -4.4902e-011 -2.07528e-026   
     length 0.640951   
     axis 1.3242e-014 90 90   XYZ
    dof rx rz
    limits (-90.0 90.0)
           (-45.0 45.0)
  end
  begin
     id 22 
     name lfingers
     direction 1 -4.49014e-011 -4.15056e-026   
     length 0.516751   
     axis 2.64841e-014 90 90   XYZ
    dof rx
    limits (0.0 90.0)
  end
  begin
     id 23
     name lthumb
     direction 0.707107 -6.35008e-011 0.707107   
     length 0.741954   
     axis -90 45 2.85299e-015   XYZ
    dof rx rz
    limits (-45.0 45.0)
           (-45.0 45.0)
  end
  begin
     id 24 
     name rclavicle
     direction -0.888531 0.455324 -0.0565039   
     length 3.20126  
     axis 0 0 0   XYZ 
    dof ry rz
    limits (-10.0 20.0)
           (-20.0 0.0)
  end
  begin
     id 25 
     name rhumerus
     direction -1 -4.48946e-011 -8.98298e-028  
     length 5.3519   
     axis 180 30 90   XYZ
    dof rx ry rz
    limits (-90.0 60.0)
           (-90.0 90.0)
           (-90.0 90.0)
  end
  begin
     id 26 
     name rradius
     direction -1 -4.4899e-011 -3.18779e-027   
     length 3.02531   
     axis 180 30 90   XYZ
    dof rx
    limits (-10.0 170.0)
  end
  begin
     id 27 
     name rwrist
     direction -1 -4.4897e-011 -1.03764e-026   
     length 1.51266   
     axis 9.09556e-015 -90 -90   XYZ
    dof ry
    limits (-180.0 0.0)
  end
  begin
     id 28
     name rhand
     direction -1 -4.48941e-011 -2.07528e-026   
     length 0.78389   
     axis 1.3242e-014 -90 -90   XYZ
    dof rx rz
    limits (-90.0 90.0)
           (-45.0 45.0)
  end
  begin
     id 29
     name rfingers
     direction -1 -4.49012e-011 -4.15056e-026   
     length 0.631992   
     axis 2.64841e-014 -90 -90   XYZ
    dof rx
    limits (0.0 90.0)
  end
  begin
     id 30
     name rthumb
     direction -0.707107 -6.3496e-011 0.707107   
     length 0.907418   
     axis -90 -45 -2.85299e-015   XYZ
    dof rx rz
    limits (-45.0 45.0)
           (-45.0 45.0)
  end
:hierarchy
  begin
    root lhipjoint rhipjoint lowerback
    lhipjoint lfemur
    lfemur ltibia
    ltibia lfoot
    lfoot ltoes
    rhipjoint rfemur
    rfemur rtibia
    rtibia rfoot
    rfoot rtoes
    lowerback upperback
    upperback thorax
    thorax lowerneck lclavicle rclavicle
    lowerneck upperneck
    upperneck head
    lclavicle lhumerus
    lhumerus lradius
    lradius lwrist
    lwrist lhand lthumb
    lhand lfingers
    rclavicle rhumerus
    rhumerus rradius
    rradius rwrist
    rwrist rhand rthumb
    rhand rfingers
  end

#!OML:ASF E:\Style3\Style3.ASF
:FULLY-SPECIFIED
:DEGREES
483
root 0.0391595 17.8167 0.879728 -162.365 70.6528 182.842
lowerback -4.98065 -0.075206 -0.677436
upperback -10.237 0.858953 4.44971
thorax -8.07079 0.988996 5.04187
lowerneck -6.0088 -5.74041 -8.91512
upperneck 17.8705 -10.8448 31.3917
head 8.99385 -2.64289 12.0949
rclavicle -3.73715e-014 4.6118e-014
rhumerus -23.6828 31.4329 -58.582
rradius 119.243
rwrist -11.8308
rhand 21.4174 15.0521
rfingers 7.12502
rthumb 45.8531 -8.10337
lclavicle -3.73715e-014 4.6118e-014
lhumerus 29.6487 -18.5498 1.68969
lradius 124.866
lwrist 59.4216
lhand 8.64832 38.0545
lfingers 7.12502
lthumb 33.8432 64.873
rfemur -11.6141 9.33213 17.8157
rtibia 12.3099
rfoot -14.4769 -25.0356
rtoes -16.1865
lfemur -16.5126 -21.579 -7.95275
ltibia 5.9337
lfoot -5.53031 9.83757
ltoes -25.4345
484
root 0.0431391 17.8169 0.877971 -162.89 70.8516 182.283
lowerback -4.96456 -0.0572301 -0.864223
upperback -10.1839 0.873785 4.45525
thorax -8.02634 1.00639 5.15323
lowerneck -6.05032 -5.75162 -8.88144
upperneck 17.6625 -10.8294 31.4094
head 8.92793 -2.64944 12.0734
rclavicle -1.92821e-014 -6.36111e-015
rhumerus -23.6771 31.3783 -58.4897
rradius 119.512
rwrist -11.7355
rhand 21.9154 15.2673
rfingers 7.12502
rthumb 46.3151 -7.69484
lclavicle -1.92821e-014 -6.36111e-015
lhumerus 29.7579 -20.8365 -1.0357
lradius 125.452
lwrist 58.5526
lhand 14.5208 37.9382
lfingers 7.12502
lthumb 39.4004 63.3423
rfemur -11.7483 9.39442 17.5586
rtibia 12.539
rfoot -14.5861 -24.9517
rtoes -16.1221
lfemur -16.1879 -21.4606 -8.24971
ltibia 5.48489
lfoot -5.26455 9.8162
ltoes -25.9776
485
root 0.04717 17.8165 0.876675 -163.011 71.0849 182.081
lowerback -4.95616 -0.0279539 -0.963675
upperback -10.1536 0.913159 4.51164
thorax -8.00594 1.03479 5.26951
lowerneck -6.18005 -5.74238 -8.8181
upperneck 17.4672 -10.7876 31.3705
head 8.87169 -2.64024 12.0226
rclavicle -5.1684e-015 -6.52014e-014
rhumerus -23.7458 31.2832 -58.3782
rradius 119.783
rwrist -11.6966
rhand 22.3753 15.6443
rfingers 7.12502
rthumb 46.7411 -7.13514
lclavicle -5.1684e-015 -6.52014e-014
lhumerus 29.6805 -22.388 -3.15453
lradius 126.452
lwrist 58.2497
lhand 21.4674 38.0558
lfingers 7.12502
lthumb 45.8995 61.192
rfemur -11.9632 9.56268 17.4092
rtibia 12.7566
rfoot -14.6439 -24.8888
rtoes -16.2724
lfemur -15.9019 -21.2574 -8.41119
ltibia 5.02654
lfoot -4.96966 9.78143
ltoes -26.2553
486
root 0.0517987 17.8172 0.873307 -163.027 71.3403 181.913
lowerback -4.99155 -0.00182304 -1.00085
upperback -10.1655 0.952819 4.5487
thorax -8.00534 1.0606 5.33018
lowerneck -6.27481 -5.73158 -8.8267
upperneck 17.3326 -10.7565 31.4164
head 8.84317 -2.63071 12.0337
rclavicle 5.00937e-014 8.42847e-014
rhumerus -23.875 31.1607 -58.3019
rradius 120.087
rwrist -11.7652
rhand 22.8771 15.9545
rfingers 7.12502
rthumb 47.2053 -6.62078
lclavicle 5.00937e-014 8.42847e-014
lhumerus 29.2396 -23.1632 -4.64825
lradius 127.863
lwrist 58.2644
lhand 29.9202 38.4621
lfingers 7.12502
lthumb 53.6352 57.5438
rfemur -12.2473 9.6485 17.2542
rtibia 12.9439
rfoot -14.6562 -24.7582
rtoes -16.4199
lfemur -15.6853 -21.0168 -8.54749
ltibia 4.56257
lfoot -4.85891 9.76142
ltoes -25.8479
487
root 0.0572743 17.8195 0.869221 -163.08 71.6826 181.656
lowerback -5.06713 0.057526 -1.03769
upperback -10.2151 1.03689 4.5241
thorax -8.02605 1.1076 5.32391
lowerneck -6.22381 -5.73924 -8.77892
upperneck 17.1613 -10.7435 31.4698
head 8.77357 -2.63579 12.0311
rclavicle 2.28602e-014 -6.67916e-014
rhumerus -24.1341 31.0179 -58.3215
rradius 120.369
rwrist -11.9829
rhand 23.1494 16.1432
rfingers 7.12502
rthumb 47.4569 -6.31909
lclavicle 2.28602e-014 -6.67916e-014
lhumerus 28.6033 -23.292 -5.58508
lradius 129.682
lwrist 58.8465
lhand 38.2589 39.6406
lfingers 7.12502
lthumb 60.9369 52.3983
rfemur -12.5652 9.74046 17.0332
rtibia 13.0623
rfoot -14.5658 -24.6123
rtoes -16.7332
lfemur -15.5545 -20.6966 -8.7339
ltibia 4.21564
lfoot -4.82859 9.76673
ltoes -25.2678
488
root 0.0634317 17.8232 0.865496 -162.912 72.0651 181.606
lowerback -5.13216 0.134131 -1.00829
upperback -10.2547 1.14345 4.50208
thorax -8.04266 1.1602 5.28215
lowerneck -6.20681 -5.76721 -8.73174
upperneck 16.9991 -10.7656 31.5484
head 8.72606 -2.65185 12.038
rclavicle 5.48646e-014 6.04305e-014
rhumerus -24.3993 30.8857 -58.3386
rradius 120.696
rwrist -12.4885
rhand 23.3833 16.0232
rfingers 7.12502
rthumb 47.6728 -6.34086
lclavicle 5.48646e-014 6.04305e-014
lhumerus 27.7446 -22.6942 -5.94708
lradius 131.72
lwrist 60.3392
lhand 44.6055 41.9068
lfingers 7.12502
lthumb 66.0847 47.1675
rfemur -12.9185 9.83571 16.866
rtibia 13.1669
rfoot -14.5911 -24.3399
rtoes -16.3288
lfemur -15.4079 -20.3109 -8.85013
ltibia 3.81947
lfoot -4.78122 9.78124
ltoes -24.9817
489
root 0.0678703 17.8245 0.862724 -162.629 72.4168 181.689
lowerback -5.14906 0.204474 -0.9792
upperback -10.2991 1.24675 4.52474
thorax -8.09405 1.2148 5.28857
lowerneck -6.22008 -5.8199 -8.79092
upperneck 16.9153 -10.834 31.6346
head 8.72992 -2.68923 12.0748
rclavicle 1.09332e-014 2.8625e-014
rhumerus -24.6505 30.7482 -58.2687
rradius 121.037
rwrist -13.1927
rhand 23.7534 15.9513
rfingers 7.12502
rthumb 48.0143 -6.25486
lclavicle 1.09332e-014 2.8625e-014
lhumerus 26.6936 -21.2962 -5.6115
lradius 133.777
lwrist 62.7033
lhand 48.818 45.1736
lfingers 7.12502
lthumb 69.1595 43.4165
rfemur -13.2284 10.0332 16.7578
rtibia 13.2311
rfoot -14.521 -24.2209
rtoes -16.3208
lfemur -15.2728 -19.9381 -8.89908
ltibia 3.42367
lfoot -4.63466 9.73148
ltoes -24.9555
490
root 0.0709817 17.8254 0.858882 -162.475 72.7401 181.592
lowerback -5.24086 0.268182 -1.00631
upperback -10.3514 1.342 4.5414
thorax -8.11152 1.27005 5.32138
lowerneck -6.22111 -5.89656 -8.9094
upperneck 16.8841 -10.9448 31.7467
head 8.76582 -2.74456 12.1382
rclavicle 3.95581e-014 1.11319e-014
rhumerus -24.8736 30.5476 -58.1525
rradius 121.35
rwrist -13.6504
rhand 24.0025 15.7855
rfingers 7.12502
rthumb 48.2438 -6.31279
lclavicle 3.95581e-014 1.11319e-014
lhumerus 25.5182 -18.9446 -4.50941
lradius 135.796
lwrist 66.0253
lhand 50.1716 48.4956
lfingers 7.12502
lthumb 70.0636 44.0268
rfemur -13.55 10.175 16.5937
rtibia 13.2504
rfoot -14.3849 -24.1295
rtoes -16.7739
lfemur -15.2507 -19.6018 -8.98011
ltibia 3.08398
lfoot -4.45125 9.70536
ltoes -25.232
491
root 0.0764636 17.8275 0.851457 -162.129 73.0547 181.675
lowerback -5.35905 0.328001 -0.911358
upperback -10.425 1.43391 4.54175
thorax -8.13279 1.31466 5.26769
lowerneck -6.2331 -5.96549 -8.96719
upperneck 16.9437 -11.0655 31.837
head 8.83224 -2.79144 12.1876
rclavicle 5.36719e-015 5.88403e-014
rhumerus -25.1885 30.3303 -58.1335
rradius 121.597
rwrist -14.0071
rhand 24.0865 15.5898
rfingers 7.12502
rthumb 48.3212 -6.47179
lclavicle 5.36719e-015 5.88403e-014
lhumerus 24.5056 -15.4888 -2.93813
lradius 137.517
lwrist 69.9401
lhand 49.4899 50.5503
lfingers 7.12502
lthumb 69.6142 47.478
rfemur -13.8566 10.1296 16.4942
rtibia 13.2187
rfoot -14.2226 -23.8548
rtoes -17.1999
lfemur -15.2816 -19.2597 -9.01972
ltibia 2.84674
lfoot -4.41341 9.69422
ltoes -25.1278
492
root 0.0843304 17.8316 0.84368 -161.779 73.3993 181.774
lowerback -5.40384 0.36884 -0.829685
upperback -10.5331 1.50367 4.53834
thorax -8.23276 1.35136 5.21748
lowerneck -6.18079 -5.99709 -8.9679
upperneck 17.0075 -11.1313 31.877
head 8.86383 -2.81717 12.2073
rclavicle -3.77691e-015 -2.8625e-014
rhumerus -25.5383 30.1661 -58.1936
rradius 121.812
rwrist -14.3781
rhand 24.0642 15.5037
rfingers 7.12502
rthumb 48.3007 -6.56762
lclavicle -3.77691e-015 -2.8625e-014
lhumerus 23.4027 -10.976 -1.10288
lradius 139.096
lwrist 73.5584
lhand 48.4014 50.3319
lfingers 7.12502
lthumb 68.872 49.361
rfemur -14.1566 10.1688 16.369
rtibia 13.1635
rfoot -14.2577 -23.5521
rtoes -17.008
lfemur -15.2711 -18.8934 -9.0814
ltibia 2.60206
lfoot -4.34546 9.7307
ltoes -25.144
493
root 0.0894027 17.836 0.839377 -161.393 73.7226 181.928
lowerback -5.39313 0.397342 -0.806396
upperback -10.6053 1.5545 4.56869
thorax -8.32635 1.38252 5.23642
lowerneck -6.16319 -6.03965 -8.98183
upperneck 17.0097 -11.2021 31.9179
head 8.8844 -2.85065 12.2224
rclavicle -4.17448e-014 -5.40694e-014
rhumerus -25.7009 30.0224 -58.161
rradius 121.994
rwrist -14.7169
rhand 23.9762 15.3784
rfingers 7.12502
rthumb 48.2196 -6.73132
lclavicle -4.17448e-014 -5.40694e-014
lhumerus 22.0668 -5.30723 0.968222
lradius 140.628
lwrist 76.6539
lhand 47.1559 48.4725
lfingers 7.12502
lthumb 67.989 49.7242
rfemur -14.4234 10.3759 16.2592
rtibia 13.0719
rfoot -14.2456 -23.4215
rtoes -16.97
lfemur -15.3424 -18.5344 -9.08937
ltibia 2.47896
lfoot -4.48374 9.68682
ltoes -24.0029
494
root 0.0941088 17.8383 0.833893 -161.462 74.0729 181.671
lowerback -5.39102 0.429705 -0.910945
upperback -10.6354 1.59906 4.55566
thorax -8.36905 1.41407 5.28122
lowerneck -6.05114 -6.06833 -8.93346
upperneck 16.9017 -11.229 31.9454
head 8.83089 -2.87621 12.2103
rclavicle -5.725e-014 0
rhumerus -25.8785 29.8102 -58.1579
rradius 122.114
rwrist -15.1446
rhand 23.9072 15.3651
rfingers 7.12502
rthumb 48.156 -6.77461
lclavicle -5.725e-014 0
lhumerus 20.9942 1.07928 3.14777
lradius 141.68
lwrist 79.3619
lhand 44.6242 45.9952
lfingers 7.12502
lthumb 66.0991 51.2289
rfemur -14.6144 10.3788 16.0632
rtibia 13.0001
rfoot -14.0285 -23.2073
rtoes -17.667
lfemur -15.2577 -18.1946 -9.22663
ltibia 2.2012
lfoot -4.75093 9.52696
ltoes -21.6795
495
root 0.100197 17.839 0.828742 -161.293 74.4067 181.676
lowerback -5.41199 0.466913 -0.924899
upperback -10.6466 1.64837 4.54696
thorax -8.37504 1.43957 5.2792
lowerneck -6.00699 -6.08168 -8.88633
upperneck 16.8815 -11.2539 31.9851
head 8.82242 -2.88674 12.2143
rclavicle 6.55989e-015 4.29375e-014
rhumerus -25.9779 29.4751 -58.1536
rradius 122.146
rwrist -15.4266
rhand 24.0606 15.4895
rfingers 7.12502
rthumb 48.2973 -6.58343
lclavicle 6.55989e-015 4.29375e-014
lhumerus 20.3937 7.71376 5.24565
lradius 142.127
lwrist 81.7758
lhand 40.7805 42.9056
lfingers 7.12502
lthumb 63.039 53.0428
rfemur -14.8011 10.4334 15.9449
rtibia 12.9466
rfoot -13.7997 -23.0352
rtoes -18.185
lfemur -15.0372 -17.8525 -9.30622
ltibia 1.72519
lfoot -4.73031 9.43538
ltoes -20.7227
